<?xml version="1.0" encoding="utf-8"?>
<!-- Generator: Adobe Illustrator 25.2.1, SVG Export Plug-In . SVG Version: 6.00 Build 0)  -->
<svg version="1.1" id="图层_1" xmlns="http://www.w3.org/2000/svg" xmlns:xlink="http://www.w3.org/1999/xlink" x="0px" y="0px"
	 viewBox="0 0 501.5 166.9" style="enable-background:new 0 0 501.5 166.9;" xml:space="preserve">
<style type="text/css">
	.st0{enable-background:new    ;}
	.st1{font-family:'SourceHanSansCN-Regular-GBpc-EUC-H';}
	.st2{font-size:16.9795px;}
	.st3{fill:#D2F3FF;}
	.st4{fill:#00B0FF;}
	.st5{fill:#7D9542;}
	.st6{fill:#93C644;}
	.st7{fill:#617832;}
	.st8{fill:#86BC3D;}
	.st9{fill:#76A030;}
	.st10{fill:#D6E7B1;}
	.st11{fill:#B2B894;}
	.st12{fill:#B5D575;}
	.st13{fill:#B35943;}
	.st14{fill:#ED794D;}
	.st15{fill:#AF4938;}
	.st16{fill:#EB683D;}
	.st17{fill:#4F484E;}
	.st18{fill:#786D78;}
</style>
<g class="st0">
	<path d="M120.8,110.8c0-1.1,0.4-2.1,1.2-2.8c0.8-0.7,1.8-1.1,3-1.1c1.3,0,2.5,0.8,3.5,2.3c1.4,2.1,2.6,3.5,3.7,4.2
		c2.3,1.5,5.7,2.3,10.1,2.3c4.2,0,8.1-0.9,11.7-2.7c4.6-2.3,6.9-5.6,6.9-9.7c0-3.4-1.9-6.1-5.8-8.1c-3.3-1.7-7.3-2.6-12.2-2.8
		c-4.3-0.2-7.9-1.1-11-2.8c-3.9-2.2-5.8-5.3-5.8-9.5c0-4.8,2.7-9.2,8.2-13.2c5.2-3.8,10.7-5.7,16.3-5.7c2.6,0,5.6,0.4,8.9,1.3
		c4.4,1.2,6.6,2.7,6.6,4.5c0,2.4-1.2,3.6-3.7,3.6c-1.1,0-3-0.3-5.7-0.9c-2.7-0.6-4.8-0.9-6.3-0.8c-4.2,0.1-7.8,1.1-10.8,3.1
		c-3,2.1-4.6,4.6-4.6,7.6c0,2.3,2,3.8,6,4.8c1.5,0.4,4.4,0.7,8.7,1c6.2,0.5,11.1,2.4,14.6,5.9c3.2,3.2,4.8,7,4.8,11.5
		c0,6.5-3,11.6-9,15.5c-5.2,3.3-11.2,5-18,5c-5,0-9.5-1-13.6-2.9C123.5,118,120.9,114.8,120.8,110.8z"/>
	<path d="M213,123.4c-1.9,0-3.2-1-3.8-3.1c-0.6-2.2-1.2-5.4-1.7-9.5c-0.5-3.9-0.7-7.2-0.7-9.7c0-0.7,0-1.8,0.1-3.2
		c0.1-1.4,0.1-2.5,0.1-3.2c0-5.1-1.3-7.7-3.8-7.7c-3.4,0-6.5,1.6-9.2,4.7c-1.4,1.6-3.3,4.7-5.7,9.2c0,10.3-0.4,16.5-1.3,18.4
		c-0.8,1.7-1.9,2.5-3.5,2.5c-1.1,0-2.1-0.4-2.9-1.1s-1.3-1.7-1.3-2.8c0-0.4,0.1-1,0.4-1.8c0.2-0.7,0.4-2.7,0.4-5.9l0.1-6l0.1-29.9
		c0.2-3.4,0.3-5.6,0.3-6.8c0-1.4-0.1-2.7-0.4-3.9c-0.3-1.2-0.4-2.5-0.4-3.8c0-1.1,0.4-2.1,1.2-2.8s1.8-1.1,2.9-1.1
		c2.2,0,3.5,1.2,3.9,3.6c0.4,2.6,0.7,5,0.7,7.1c0,2.9-0.1,5.8-0.3,8.9c-0.2,3-0.2,5.9-0.2,8.9l0,3.6c2.2-3,4.6-5.2,7.1-6.7
		c2.5-1.5,5.2-2.2,8.1-2.2c4.5,0,7.6,1.5,9.3,4.4c1.2,2.1,1.9,5.5,2,10.4l0.3,7.8l0.8,8.5c0.4,3.2,0.8,6,1.4,8.4
		c0.1,0.5,0.2,0.9,0.2,1.2c0,1.1-0.4,2-1.2,2.8C215.1,123.1,214.1,123.4,213,123.4z"/>
	<path d="M242.3,123.3c-4.6,0-8.5-1.7-11.8-5.1c-3.7-3.7-5.6-8.8-5.8-15.1c-0.2-6.1,1.4-11.5,4.6-16.2c3.8-5.5,9.1-8.3,15.9-8.3
		c5.4,0,9.5,2.5,12.3,7.5c2.2,4,3.3,8.9,3.2,14.5c-0.1,6-1.7,11.2-4.7,15.4C252.7,120.9,248.1,123.3,242.3,123.3z M244.8,86.9
		c-4,0-7.1,1.9-9.3,5.7c-1.8,3.1-2.6,6.6-2.6,10.5c0,3.9,1.1,7,3.2,9.2c1.8,1.8,3.9,2.7,6.3,2.7c2.8,0,5.3-1,7.3-3.1
		c2.3-2.3,3.5-5.4,3.7-9.2C253.7,92.2,250.8,87,244.8,86.9z"/>
	<path d="M319.7,84.4c-2.1,8.9-4.9,18.9-8.3,30c-0.8,2.5-2,5-3.8,7.6c-1,1.4-2.2,2.1-3.9,2.1c-3-0.1-5.3-3.7-6.9-11
		c-0.5-2.3-1.1-5.5-1.7-9.5l-1.3-9.1l-3.3,7.8l-6.2,16.8c-0.4,1-0.9,1.8-1.5,2.4c-0.8,1.6-2.1,2.4-3.9,2.4c-2.1,0.1-4.1-4-6-12.1
		c-1-4.2-2-9.9-2.9-17.1l-1-6.1c-0.4-2.4-0.5-4.5-0.5-6.2c0-1.1,0.4-2.1,1.2-2.8c0.8-0.7,1.8-1.1,2.9-1.1c2.1,0,3.3,1.1,3.8,3.4
		c0.4,1.6,0.6,3.6,0.9,5.9l0.6,6l2.4,18.3c3-8.4,6.1-18,9.4-28.9c0.9-3,2.5-4.5,4.7-4.5c2.1,0,3.6,1.7,4.4,5.1
		c0.7,3.2,1.6,8.1,2.6,14.7c1.1,6.8,2,12.2,2.9,16l3-11.1l5.3-22.2c0.4-1.7,1.6-2.5,3.5-2.5c1.1,0,2.1,0.4,3,1.2
		c0.8,0.8,1.3,1.7,1.3,2.8C320.1,82.7,319.9,83.3,319.7,84.4z"/>
	<path d="M361.3,70.1c-1.7,0-3.9-0.2-6.6-0.5l-6.6-0.9c-0.6,7.9-0.9,15.5-0.9,22.6c0,1.9,0.1,4.2,0.2,7c0.1,2.8,0.2,5.1,0.2,7
		c0,2.6-0.1,4.9-0.3,7l12.8-0.2c1.1,0,2.1,0.4,2.9,1.2c0.8,0.8,1.2,1.8,1.2,3c0,1.2-0.4,2.2-1.2,3c-0.8,0.8-1.7,1.2-2.9,1.2
		c-1.5,0-3.8,0-6.8,0.1c-3,0.1-5.3,0.1-6.8,0.1c-1.8,0-4.5,0.3-8,0.8c-3.6,0.5-6.3,0.8-8.1,0.8c-1.1,0-2.1-0.4-2.9-1.2
		c-0.8-0.8-1.2-1.8-1.2-3c0-1.2,0.4-2.2,1.2-3c0.8-0.8,1.7-1.2,2.9-1.2c1.8,0,4.7-0.3,8.8-0.9c0.3-2.2,0.4-4.7,0.4-7.5
		c0-1.9-0.1-4.2-0.3-6.9c-0.2-2.7-0.3-5-0.3-6.8c0-6.3,0.4-14.1,1.1-23.5l-5.3,0.2l-5.3,0.1c-1.2,0-2.1-0.4-2.9-1.2
		c-0.8-0.8-1.2-1.8-1.2-3c0-2.5,1.3-3.9,3.8-4.2c2.2-0.2,6.3-0.3,12.3-0.3c5.4,0,12.2,0.6,20.3,1.8c2.4,0.4,3.6,1.8,3.6,4.4
		c0,1.3-0.5,2.3-1.4,3.1C363.3,69.8,362.4,70.1,361.3,70.1z"/>
	<path d="M400.8,86.2c-0.6,0-1.2,0-2-0.1c-0.8-0.1-1.4-0.1-2-0.1c-0.6,0-2.5,0.2-5.5,0.6l0.8,24.1l0,1.8l0,2.1
		c0.1,5.9-1.3,8.9-4.3,8.9c-1.1,0-2-0.4-2.8-1.1s-1.2-1.6-1.2-2.6c0-1,0-2.6,0.1-4.6c0.1-2.1,0.1-3.6,0.1-4.6l-0.8-23.8
		c-2-0.1-5-0.3-9-0.7c-2.4-0.3-3.6-1.7-3.6-4c0-1.2,0.4-2.2,1.1-3c0.7-0.8,1.7-1.2,2.8-1.2l8.6,0.7c0-1.4-0.1-3.2-0.2-5.6
		c-0.1-2.3-0.2-4-0.2-5c0-1.1,0.4-2.1,1.2-2.8c0.8-0.7,1.8-1.1,2.9-1.1c2.4,0,3.9,2,4.3,6c0.1,1,0.1,2.2,0.1,3.6L391,76l0,2.5
		c3.4-0.4,5.3-0.7,5.8-0.7c2.8,0,4.7,0.1,5.5,0.4c1.7,0.5,2.5,1.8,2.5,3.8c0,1.2-0.4,2.2-1.1,3C402.9,85.8,402,86.2,400.8,86.2z"/>
</g>
<text transform="matrix(1 0 0 1 114.57 149.12)" class="st1 st2">轻量级</text>
<text transform="matrix(1 0 0 1 165.51 149.12)" class="st1 st2">C</text>
<text transform="matrix(1 0 0 1 175.7 149.12)" class="st1 st2">O</text>
<text transform="matrix(1 0 0 1 187.84 149.12)" class="st1 st2">VID-19防疫码收集与整理平台</text>
<path class="st3" d="M390,0h88c13,0,23.5,10.5,23.5,23.5v4.6c0,13-10.5,23.5-23.5,23.5h-88c-13,0-23.5-10.5-23.5-23.5v-4.6
	C366.6,10.5,377.1,0,390,0z"/>
<g class="st0">
	<path class="st4" d="M402.2,25.2l2.9,1.1V40l-23.4,1.2V9.5l23.4,1.3v13.2L402.2,25.2z M389.1,22h9.1v-5.9l-9.1-0.3V22z M389.1,34.5
		l9.1-0.1v-6.1h-9.1V34.5z"/>
	<path class="st4" d="M417,15.9l0.1,6.3h13v6h-12.9l0.1,6.5l15-0.3v6.4h-22.8v-31h21.9v6.4L417,15.9z"/>
	<path class="st4" d="M458.1,9.8v6.3h-8.5l0.4,24.7h-8.3l0.3-24.7h-8V9.8H458.1z"/>
	<path class="st4" d="M479.5,40.8l-1.9-6h-9.3l-1.7,6h-7.2l9.7-30.9h8l11.1,30.9H479.5z M475.7,28.8l-3-9.6l-2.8,9.6H475.7z"/>
</g>
<path class="st4" d="M10,141.7c0.3,0.3,0.5,0.5,0.8,0.8h20.1v-3.8h-9.2c-4.5,0-8.1-3.7-8.2-8.1v-9H10V141.7z"/>
<path class="st4" d="M46.1,89.7h-3.5v5.6c0,0.9-0.1,1.7-0.3,2.6h3.9c0.5,0,0.9,0,1.4,0.1c-0.2-0.9-0.4-1.8-0.4-2.7v-5.7
	C46.8,89.7,46.5,89.7,46.1,89.7z"/>
<path class="st4" d="M47.2,138.6c-0.3,0-0.7,0.1-1,0.1h-3.6v5.6c0,0.4,0,0.9-0.1,1.3h4.7V138.6z"/>
<rect x="21.6" y="121.6" class="st4" width="9.2" height="9"/>
<path class="st4" d="M42.6,70.8v10.8h3.5V57.1H21.6v3.8h11C38.1,60.9,42.6,65.3,42.6,70.8z"/>
<path class="st4" d="M42.6,119.8v10.8h3.5V106H21.7v3.8h11C38.1,109.8,42.6,114.3,42.6,119.8z"/>
<path class="st4" d="M58.9,93.5h20.9v-3.8h-9.2c-4.5,0-8.1-3.6-8.2-8.1v-9h-3.5L58.9,93.5z"/>
<rect x="21.6" y="72.6" class="st4" width="9.2" height="9"/>
<path class="st4" d="M110.1,54.3c0-6.8-5.5-12.3-12.3-12.3H18.8c-6.8,0-12.3,5.5-12.3,12.3V61c0.5-0.1,1.1-0.1,1.6-0.1h5.3v-3.8
	c0-4.5,3.6-8.1,8.2-8.2h24.5c4.5,0,8.1,3.7,8.2,8.2v4.2c0.9-0.3,1.9-0.4,2.8-0.4h5.3v-3.8c0-4.5,3.7-8.1,8.2-8.2H95
	c4.5,0,8.1,3.6,8.2,8.1v24.5c0,4.5-3.7,8.1-8.1,8.1h-3.5v5.6c0,5.5-4.5,9.9-9.9,9.9H57.1c-1,0-2-0.2-2.9-0.4
	c0.1,0.4,0.1,0.8,0.1,1.2v12.1c2.7,0.6,4.6,3,4.6,5.7v21.7h4.6v-8.3c-0.7-0.7-1-1.7-1-2.7v-24.5c0-2.3,1.8-4.1,4.1-4.1
	c2.3,0,4.1,1.8,4.1,4.1v8c2.7,0.6,4.6,3,4.6,5.7v21.7h4.6v-8.3c-0.7-0.7-1-1.7-1-2.7v-24.5c0.1-2.3,1.9-4,4.2-4
	c2.1,0.1,3.8,1.7,4,3.8c2.7,0.6,4.6,3,4.6,5.7v29.8h6.3c6.8,0,12.3-5.5,12.3-12.3L110.1,54.3z M99.2,138.7c-2.3,0-4.1-1.8-4.1-4.1
	V102c0-2.3,1.8-4.1,4.1-4.1s4.1,1.8,4.1,4.1v32.7C103.2,136.8,101.4,138.7,99.2,138.7L99.2,138.7z"/>
<rect x="70.6" y="72.6" class="st4" width="9.2" height="8.9"/>
<path class="st4" d="M91.6,70.8v10.7h3.5V57H70.6v3.8h11C87.1,60.9,91.5,65.3,91.6,70.8z"/>
<path class="st4" d="M6.6,105.1v4.8c0.5-0.1,1-0.1,1.5-0.1h5.3v-3.8c0-0.3,0-0.5,0-0.8H8.2C7.6,105.3,7.1,105.2,6.6,105.1z"/>
<path class="st4" d="M10,93.5h20.9v-3.8h-9.2c-4.5,0-8.1-3.6-8.1-8.1c0,0,0,0,0,0v-9H10L10,93.5z"/>
<path class="st5" d="M65.9,53l-5.4,8c-0.6,0.9-0.4,2,0.3,2.7C71.9,74,87.2,78.7,102.2,76.2c0.4-4.3,0.9-8.6,1.2-12.9
	C90,66.3,75.9,62.5,65.9,53z"/>
<path class="st6" d="M127.9,61.1l-5.4-8c-0.9,0.9-1.9,1.8-2.9,2.5c-4.8,3.8-10.3,6.4-16.2,7.7c-0.3,4.3-0.8,8.6-1.2,12.9
	c9.5-1.5,18.4-5.9,25.5-12.5l0,0C128.4,63.1,128.5,61.9,127.9,61.1z"/>
<path class="st7" d="M86.5,71.7l-1.2,4.4c1.7,0.3,3.5,0.5,5.2,0.7l-0.8-4.1L86.5,71.7z"/>
<path class="st8" d="M127.6,63.8c-1.1,1-2.2,1.9-3.3,2.8c0.4-0.7,0.4-1.6,0-2.3l-5.5-8.1l0.8-0.6c1-0.8,2-1.6,2.9-2.5l5.4,8
	C128.6,61.9,128.4,63,127.6,63.8L127.6,63.8z"/>
<path class="st9" d="M125.2,65.8c-1.3,1-2.6,2-4,2.9l-1.5-4.5c0,0-4.2-4.7-4.1-4.8l3.1-3.4L125.2,65.8z"/>
<path class="st7" d="M75.1,59.5L68,69.2c-1.2-0.8-2.4-1.6-3.5-2.5l5.7-11.1L75.1,59.5z"/>
<path class="st9" d="M115.6,72c-1.4,0.7-2.8,1.3-4.2,1.8l-4.9-11.6l4.9-2.7L115.6,72z"/>
<path class="st7" d="M101.6,63.3l-8.7,1.8l0.6,6.6l4,1.2l1.7,3.7c1-0.1,2-0.2,3-0.4c0.3-2.7,0.6-5.5,0.8-8.2L101.6,63.3z"/>
<path class="st9" d="M103,68c-0.3,2.8-0.6,5.5-0.8,8.2c1.1-0.2,2.1-0.4,3.2-0.6L103,68z"/>
<path class="st7" d="M85.7,63.5l-5,11.5c-2.5-0.7-5-1.6-7.3-2.8l9.6-9.6L85.7,63.5z"/>
<path class="st10" d="M123.3,54.1l-3.3-5c-0.9,0.9-1.9,1.7-2.9,2.5c-4,3.1-8.5,5.3-13.3,6.6c-0.1,2.3-0.3,4.7-0.5,7
	c6-1.3,11.5-4,16.4-7.7C120.9,56.4,122.1,55.3,123.3,54.1z"/>
<path class="st11" d="M68.5,49.2l-3.3,5c10,9.9,24.3,14.1,38.1,11c0.2-2.3,0.4-4.7,0.5-7C91.2,61.4,77.9,58,68.5,49.2z"/>
<path class="st12" d="M123.3,54.1L96,13.4c-0.6-1-1.9-1.2-2.9-0.6c-0.2,0.2-0.4,0.4-0.6,0.6l0,0c3.5,5,6.8,10.1,8.6,16.1
	c0,0.2,0.1,0.3,0.1,0.4l18.4,27.6C120.9,56.4,122.1,55.3,123.3,54.1z"/>
<path class="st12" d="M92.5,13.5l-1.6,2.3c0.6,0.1,1.1,0.4,1.4,0.9l8.9,13.3c0-0.2-0.1-0.3-0.1-0.4C99.3,23.5,95.9,18.5,92.5,13.5z"
	/>
<path class="st13" d="M101.1,29.5c-1.8-6-5.1-11-8.6-16.1l-1.6,2.3L67.8,50.4c9.4,9.4,23,13.1,35.9,9.8
	C104.3,49.9,104,39.7,101.1,29.5z"/>
<path class="st14" d="M120.8,50.4L96,13.4c-0.6-1-1.9-1.2-2.9-0.6c-0.2,0.2-0.4,0.4-0.6,0.6l0,0c3.5,5,6.8,10.1,8.6,16.1
	c3,10.2,3.2,20.4,2.5,30.7c4.9-1.3,9.5-3.5,13.5-6.6C118.4,52.6,119.6,51.5,120.8,50.4z"/>
<path class="st15" d="M92.5,13.5l-1.6,2.3c0.6,0.1,1.1,0.4,1.4,0.9l8.9,13.3c0-0.2-0.1-0.3-0.1-0.4C99.3,23.5,95.9,18.5,92.5,13.5z"
	/>
<path class="st16" d="M120.8,50.4L96,13.4c-0.6-1-1.9-1.2-2.9-0.6c-0.2,0.2-0.4,0.4-0.6,0.6l0,0c3.5,5,6.8,10.1,8.6,16.1
	c0,0.2,0.1,0.3,0.1,0.4l15.9,23.7C118.4,52.6,119.6,51.5,120.8,50.4z"/>
<path class="st17" d="M88.6,38.5c0,0.7-0.3,1.3-0.7,1.8c-0.5,0.6-1.4,0.6-1.9,0.1c0,0,0,0-0.1-0.1c-0.9-1-0.9-2.5,0-3.5
	c0.5-0.6,1.4-0.6,1.9-0.1c0,0,0,0,0.1,0.1C88.4,37.2,88.6,37.8,88.6,38.5z"/>
<path class="st17" d="M102.6,36.7c-0.5-0.6-1.4-0.6-1.9-0.1c0,0,0,0-0.1,0.1c-0.9,1-0.9,2.5,0,3.5c0.5,0.6,1.4,0.6,1.9,0.1
	c0,0,0,0,0.1-0.1c0.3-0.3,0.4-0.6,0.6-1c-0.1-0.7-0.2-1.5-0.3-2.2L102.6,36.7z"/>
<path class="st18" d="M102.8,37c0.1,0.7,0.2,1.5,0.3,2.2c0.1-0.2,0.1-0.5,0.1-0.8C103.3,38,103.1,37.5,102.8,37z"/>
<path class="st17" d="M93.2,27c-0.9,1-0.9,2.5,0,3.5c0.5,0.6,1.4,0.6,1.9,0.1c0,0,0,0,0.1-0.1c0.9-1,0.9-2.5,0-3.5
	C94.7,26.4,93.8,26.4,93.2,27C93.3,27,93.2,27,93.2,27z"/>
<path class="st17" d="M81.3,48.2c0,0.7-0.3,1.3-0.7,1.8c-0.5,0.6-1.4,0.6-1.9,0.1c0,0,0,0-0.1-0.1c-0.9-1-0.9-2.5,0-3.5
	c0.5-0.6,1.4-0.6,1.9-0.1c0,0,0,0,0.1,0.1C81.1,46.9,81.3,47.6,81.3,48.2z"/>
<path class="st17" d="M93.2,46.5c-0.9,1-0.9,2.5,0,3.5c0.5,0.6,1.4,0.6,1.9,0.1c0,0,0,0,0.1-0.1c0.9-1,0.9-2.5,0-3.5
	C94.7,45.9,93.8,45.9,93.2,46.5C93.3,46.4,93.2,46.4,93.2,46.5z"/>
<path class="st18" d="M110.6,48.2c0,0.7-0.3,1.3-0.7,1.8c-0.5,0.6-1.4,0.6-1.9,0.1c0,0,0,0-0.1-0.1c-0.9-1-0.9-2.5,0-3.5
	c0.5-0.6,1.4-0.6,1.9-0.1c0,0,0,0,0.1,0.1C110.3,46.9,110.6,47.6,110.6,48.2z"/>
<path class="st4" d="M8.2,95.3V70.8h24.5v24.5H8.2z M32.7,62.7H8.2c-4.5,0-8.1,3.7-8.2,8.2v24.5c0,4.5,3.7,8.1,8.2,8.1h24.5
	c4.5,0,8.1-3.7,8.2-8.1V70.8C40.8,66.3,37.1,62.7,32.7,62.7z M8.2,144.3v-24.5h24.5v24.5H8.2z M32.7,111.6H8.2
	c-4.5,0-8.1,3.7-8.2,8.1v24.5c0,4.5,3.6,8.2,8.1,8.2c0,0,0,0,0,0h24.5c4.5,0,8.1-3.7,8.2-8.1v-24.5
	C40.8,115.3,37.2,111.6,32.7,111.6C32.7,111.6,32.7,111.6,32.7,111.6z M57.1,95.3V70.8h24.5v24.5H57.1z M81.6,62.7H57.1
	c-4.5,0-8.1,3.7-8.2,8.2v24.5c0,4.5,3.7,8.1,8.2,8.1h24.5c4.5,0,8.1-3.7,8.1-8.1V70.8C89.8,66.3,86.1,62.7,81.6,62.7z M69.4,119.8
	c-2.3,0-4.1,1.8-4.1,4.1l0,0v24.5c0,2.3,1.8,4.1,4.1,4.1s4.1-1.8,4.1-4.1l0,0v-24.5C73.4,121.6,71.6,119.8,69.4,119.8
	C69.4,119.8,69.4,119.8,69.4,119.8 M53,119.8c-2.3,0-4.1,1.8-4.1,4.1l0,0v24.5c0,2.3,1.8,4.1,4.1,4.1c2.3,0,4.1-1.8,4.1-4.1
	c0,0,0,0,0,0v-24.5C57.1,121.6,55.3,119.8,53,119.8C53,119.8,53,119.8,53,119.8 M85.7,111.6c-2.3,0-4.1,1.8-4.1,4.1l0,0v32.6
	c0,2.3,1.8,4.1,4.1,4.1s4.1-1.8,4.1-4.1l0,0v-32.6C89.8,113.5,87.9,111.6,85.7,111.6L85.7,111.6"/>
</svg>
