<?xml version="1.0" encoding="utf-8"?>
<!-- Generator: Adobe Illustrator 25.2.1, SVG Export Plug-In . SVG Version: 6.00 Build 0)  -->
<svg version="1.1" id="图层_1" xmlns="http://www.w3.org/2000/svg" xmlns:xlink="http://www.w3.org/1999/xlink" x="0px" y="0px"
	 viewBox="0 0 549.4 204.6" style="enable-background:new 0 0 549.4 204.6;" xml:space="preserve">
<style type="text/css">
	.st0{enable-background:new    ;}
	.st1{fill:#D2F3FF;}
	.st2{fill:#00B0FF;}
	.st3{fill:#7D9542;}
	.st4{fill:#93C644;}
	.st5{fill:#617832;}
	.st6{fill:#86BC3D;}
	.st7{fill:#76A030;}
	.st8{fill:#D6E7B1;}
	.st9{fill:#B2B894;}
	.st10{fill:#B5D575;}
	.st11{fill:#B35943;}
	.st12{fill:#ED794D;}
	.st13{fill:#AF4938;}
	.st14{fill:#EB683D;}
	.st15{fill:#4F484E;}
	.st16{fill:#786D78;}
</style>
<g class="st0">
	<path d="M148,117.1c0-1.4,0.4-2.5,1.4-3.3c1-0.9,2.1-1.3,3.5-1.3c1.6,0,3,0.9,4.2,2.7c1.6,2.5,3.1,4.1,4.4,5
		c2.7,1.8,6.7,2.7,12,2.7c5,0,9.7-1.1,14-3.2c5.5-2.8,8.2-6.6,8.2-11.6c0-4.1-2.3-7.3-6.9-9.7c-3.9-2-8.7-3.1-14.5-3.3
		c-5.1-0.2-9.5-1.3-13-3.3c-4.6-2.6-6.9-6.4-6.9-11.3c0-5.8,3.3-11,9.8-15.8c6.2-4.5,12.7-6.7,19.4-6.7c3.1,0,6.7,0.5,10.6,1.6
		c5.2,1.4,7.9,3.2,7.9,5.3c0,2.8-1.5,4.3-4.4,4.3c-1.3,0-3.6-0.3-6.8-1s-5.7-1-7.5-1c-5,0.1-9.3,1.3-12.9,3.7
		c-3.6,2.5-5.4,5.5-5.4,9.1c0,2.7,2.4,4.6,7.2,5.7c1.8,0.4,5.2,0.8,10.3,1.2c7.4,0.5,13.2,2.9,17.4,7c3.8,3.8,5.7,8.3,5.7,13.7
		c0,7.7-3.6,13.8-10.7,18.4c-6.2,4-13.3,6-21.5,6c-5.9,0-11.3-1.1-16.2-3.4C151.1,125.8,148.1,122,148,117.1z"/>
	<path d="M237.7,130.9c-3.2,0-6.8-0.5-10.7-1.6l-0.1,23.2c0,1.4-0.4,2.6-1.3,3.5c-0.9,0.9-2,1.4-3.4,1.4c-1.4,0-2.5-0.5-3.4-1.4
		c-0.9-0.9-1.3-2.1-1.3-3.5l0.1-19.4v-19.4c-0.1-7.1-0.3-13.5-0.7-19.4l-0.7-9.8c0-2.3,0.4-4.2,1.3-5.8c1-1.9,2.4-2.9,4.2-2.9
		c1.3,0,2.3,0.4,3.2,1.3c0.9,0.9,1.3,2,1.3,3.3c0,0.3,0,0.8-0.1,1.6c-0.2,1-0.3,1.9-0.3,2.8c2.8-1.9,5.5-3.3,8.1-4.3
		c2.6-1,5.1-1.4,7.4-1.4c6.6,0,11.5,2.9,14.6,8.8c2.4,4.7,3.6,10.8,3.6,18.5c0,7-1.9,12.7-5.6,17.3
		C249.6,128.5,244.3,130.9,237.7,130.9z M241,88.9c-3,0-5.7,0.7-8.1,2c-1.7,0.9-3.9,2.7-6.5,5.1c0.4,7.3,0.6,15.1,0.6,23.1
		c3.5,1.4,7,2,10.6,2c4,0,7.1-1.5,9.3-4.5c1.8-2.6,2.8-6,2.8-10.2c0-5.9-0.7-10.3-2.2-13.2C246.1,90.3,244,88.9,241,88.9z"/>
	<path d="M308.1,132.4c-0.6,0-1.7-0.7-3.3-2.1c-1.5-1.3-2.5-2.5-3.2-3.5c-3.1,1.7-5.8,3-8.2,3.8c-2.4,0.9-4.3,1.3-5.9,1.3
		c-7.6,0-13.1-2.1-16.5-6.4c-3.3-4-4.9-10.2-4.9-18.4c0-7.8,2.7-14.5,8.1-20.1c5.4-5.6,11.8-8.3,19.3-8.3c2.8,0,6,0.7,9.5,2.2
		c4.4,1.8,6.6,4,6.6,6.5c0,0.9-0.3,1.6-1,2.3c-0.3,1.2-0.6,3.2-0.8,6.1c-0.2,2.8-0.3,6.4-0.3,10.8c0,4,0.2,7.2,0.8,9.5
		c0.3,1.4,1.3,4.3,3.1,8.5c0.2,0.6,0.6,1.4,1.1,2.6l0.3,0.8c0,1.3-0.5,2.4-1.4,3.2C310.3,132,309.3,132.4,308.1,132.4z M298,98.7
		c0-1.4,0.1-2.9,0.3-4.5c0.2-1.6,0.4-3.4,0.8-5.2c-1.2-0.6-2.2-1.1-3.1-1.4s-1.5-0.4-2.1-0.4c-5,0-9.3,2-13,6.1
		c-3.6,4.1-5.5,8.8-5.5,14.1c0,5.3,0.9,9.3,2.8,11.9c1.9,2.7,4.7,4,8.4,4c3.1,0,5.7-0.6,7.9-1.7c1.2-0.6,2.8-1.8,4.9-3.7
		C298.5,109.4,298,103,298,98.7z"/>
	<path d="M358.8,93.4c-0.2,4-1.8,6.1-4.8,6.1c-2.8,0-4.2-1.6-4.2-4.8c0-0.6,0-1.7-0.1-3.4l-0.1-4.1c-5.1,0.6-9.2,2.1-12.3,4.3
		c-2.9,2.1-5.3,5.3-7.2,9.5l0.1,26.6c0,3.3-1.6,4.9-4.8,4.9c-2.8,0-4.3-1.6-4.3-4.9v-34c0-1.1,0-2.7,0.1-4.8s0.1-3.7,0.1-4.8
		c0-3.3,1.4-4.9,4.3-4.9c3.2,0,4.8,2.7,4.8,8.1c6.2-6,13.1-9,20.7-9c2.6,0,4.6,1,5.9,3c1.3,2,1.9,4.9,1.9,8.9
		C358.8,91.7,358.8,92.8,358.8,93.4z"/>
	<path d="M409.1,131.2c-1.8,0-3.2-0.9-4.1-2.8c-1.7-3.3-4.2-7.1-7.6-11.6l-8.6-11.7c-1.9,1.5-4.8,3.6-8.7,6.3
		c-0.4,5-0.5,9.9-0.5,14.6c0,1.5-0.4,2.6-1.3,3.5c-0.9,0.9-2,1.4-3.4,1.4c-3.3,0-4.9-2.2-4.9-6.6c0-2.7,0.2-6.7,0.6-12.1
		c0.4-5.4,0.6-9.4,0.6-12.1c0-4.9,0.1-10.5,0.2-16.9c0.1-6.3,0.2-11.9,0.2-16.8c0-1.5-0.1-3.2-0.2-5.1c-0.1-2-0.2-3.7-0.2-5.1
		s0.4-2.6,1.3-3.5c0.9-0.9,2-1.4,3.4-1.4s2.5,0.5,3.4,1.4c0.9,0.9,1.3,2.1,1.3,3.5c0,1.5,0.1,3.2,0.2,5.3c0.2,2,0.2,3.8,0.2,5.3
		l-0.3,15.6c-0.2,5.6-0.2,11.3-0.1,16.9c4.4-3.4,8.6-7,12.7-11.1l10.7-11c1.1-1.1,2.2-1.6,3.4-1.6c1.3,0,2.4,0.5,3.4,1.5
		c1,1,1.5,2.2,1.5,3.5c0,1.1-0.5,2.2-1.4,3.2c-4,4.7-8.9,9.7-14.7,15l10.6,14.4c4.9,6.8,7.4,11.2,7.4,13.2c0,1.3-0.5,2.4-1.5,3.3
		S410.5,131.2,409.1,131.2z"/>
</g>
<g class="st0">
	<path d="M166.1,167.7v1.5h-6v2.9h5.1v12.7h-1.5v-1.2h-12.8v1.3h-1.5v-12.8h4.9v-2.9h-6v-1.5H166.1z M163.7,182.3v-3.5h-0.3
		c-0.4,0-2.4,0-2.7,0c-1.7,0-2.1-0.4-2.1-2.1v-3.2h-2.9c-0.1,2.2-0.9,4.5-3.9,6c-0.2-0.3-0.6-0.9-0.9-1.1v3.8H163.7z M154.3,173.5
		h-3.4v4.9C153.6,177.1,154.2,175.3,154.3,173.5z M158.6,172.1v-2.9h-2.9v2.9H158.6z M160.1,176.7c0,0.5,0.1,0.6,0.8,0.6
		c0.3,0,2,0,2.4,0c0.2,0,0.4,0,0.4,0v-3.8h-3.6V176.7z"/>
	<path d="M173.7,182.8c2.6-3.2,2.6-7.2,2.6-10.6v-3c-1.3,0.1-2.6,0.3-3.9,0.4v2.8c0,3.6-0.4,9-3.1,12.6c-0.2-0.3-0.9-0.8-1.2-1
		c2.5-3.5,2.8-8.3,2.8-11.6v-4c4.4-0.4,9.6-1,12.6-1.8l1.3,1.2l-1.7,0.3c0.4,6.7,1.2,12.8,3.9,15.6c-0.4,0.3-0.9,0.8-1.1,1.3
		c-2.9-3.2-3.7-9.3-4.1-16.6c-1.2,0.2-2.5,0.4-3.8,0.5v3.2c0,3-0.1,6.7-1.8,9.9l4-0.8c-0.4-1.1-0.9-2.1-1.3-3.1l1.2-0.4
		c1,2,2.1,4.7,2.6,6.3l-1.3,0.5c-0.2-0.6-0.4-1.3-0.7-2.1c-4.7,1.1-5.4,1.3-5.8,1.5C174.5,183.7,174,183,173.7,182.8z"/>
	<path d="M201.9,166.6c-0.2,1.2-0.5,2.4-0.8,3.5h6v1.4h-1.3c-0.5,3.3-1.3,5.9-2.5,8.1c1,1.8,2.3,3.2,4,4c-0.4,0.3-0.8,0.9-1.1,1.3
		c-1.6-0.9-2.8-2.2-3.8-3.9c-1.2,1.6-2.7,2.9-4.7,3.9c-0.2-0.4-0.6-1-0.9-1.4c2.1-1,3.7-2.3,4.8-4.1c-0.8-1.7-1.4-3.6-1.8-5.7
		c-0.4,0.9-0.9,1.7-1.4,2.4c-0.2-0.2-0.7-0.7-1.1-0.9c-0.9,1-2,1.9-3.1,2.7v1l4.2-0.4v1.3l-4.2,0.5v3c0,0.7-0.2,1.1-0.7,1.4
		c-0.6,0.2-1.4,0.2-2.7,0.2c-0.1-0.4-0.3-0.9-0.5-1.3c1,0,1.9,0,2.1,0c0.3,0,0.3-0.1,0.3-0.3v-2.8l-4.1,0.4l-0.2-1.4l4.3-0.4v-1.5
		c0.7-0.5,1.6-1.2,2.3-1.8h-2.2c-1.1,1-2.2,1.9-3.5,2.6c-0.2-0.3-0.7-0.9-1.1-1.2c0.8-0.4,1.6-0.9,2.3-1.4h-0.5v-1.2h2
		c0.5-0.5,1-1,1.5-1.5h-5.1v-1.3h3.5v-2h-2.7v-1.3h2.7v-2.1h1.4v2.1h2.5v1.3h-2.5v2h1.3c1.1-1.5,2-3.2,2.7-5l1.4,0.4
		c-0.7,1.7-1.5,3.2-2.4,4.6h1.9v1.3h-2.9c-0.4,0.5-0.8,1-1.3,1.5h2.1l0.3-0.1l0.7,0.5c1.6-2.1,2.6-5.4,3.2-8.7L201.9,166.6z
		 M202.4,178c0.8-1.8,1.4-3.9,1.8-6.5h-3.5C201,173.9,201.6,176.1,202.4,178z"/>
	<path d="M218,166.3c0.4,0.6,0.9,1.5,1.3,2.2h7.5v1.4h-5.5c1.5,1.2,3.5,2.8,4.5,3.8l-1.2,0.9c-0.4-0.4-0.9-0.9-1.5-1.4
		c-10.3,0.6-11.4,0.6-12,0.9c-0.1-0.3-0.3-1.1-0.5-1.6c0.4-0.1,0.8-0.3,1.3-0.6c0.4-0.2,1.4-1,2.4-2H209v-1.4h8.4
		c-0.3-0.6-0.6-1.2-1-1.7L218,166.3z M224.1,174.8v8.5c0,0.9-0.2,1.3-1,1.5c-0.7,0.2-2,0.2-4,0.2c-0.1-0.4-0.3-0.9-0.5-1.3
		c1.5,0.1,3,0.1,3.4,0c0.4,0,0.5-0.1,0.5-0.5v-1.8h-9.3v3.5h-1.5v-10.2H224.1z M213.3,176.1v1.6h9.3v-1.6H213.3z M213.3,180.4h9.3
		v-1.6h-9.3V180.4z M220.7,169.8h-4.1c-1,0.9-2.1,1.8-3.1,2.5l8.2-0.4l-1.9-1.6L220.7,169.8z"/>
	<path d="M230.3,182.6c0.5-0.1,0.9-0.7,1.6-1.5c0.6-0.7,2.3-3.2,3.6-5.8h-6.3v-1.6h18v1.6h-9.6c-1.4,2.5-3,5-4.6,7l10.2-0.8
		c-0.8-1.3-1.7-2.6-2.5-3.7l1.4-0.7c1.7,2.3,3.8,5.2,4.8,7.1l-1.5,0.8c-0.3-0.6-0.7-1.4-1.2-2.2c-11.1,1-12.3,1-13.1,1.4
		C230.8,183.9,230.5,183.1,230.3,182.6z M245,168v1.5h-13.7V168H245z"/>
	<path d="M256.3,167.2v16c0,0.8-0.2,1.3-0.7,1.5c-0.5,0.3-1.3,0.3-2.7,0.3c0-0.4-0.2-1.1-0.4-1.5c0.9,0,1.8,0,2,0
		c0.3,0,0.4-0.1,0.4-0.4v-5h-3.2c-0.2,2.4-0.6,5-1.5,6.9c-0.3-0.2-0.9-0.6-1.2-0.7c1.4-2.9,1.5-6.9,1.5-9.9v-7.3H256.3z
		 M251.8,174.4c0,0.7,0,1.5,0,2.3h3.1v-3.4h-3.1V174.4z M251.8,171.9h3.1v-3.3h-3.1V171.9z M266.7,167.2v3.9c0,0.7-0.2,1.2-0.8,1.4
		c-0.6,0.2-1.7,0.2-3.2,0.2c-0.1-0.4-0.3-0.9-0.5-1.3c1.2,0,2.3,0,2.6,0c0.3,0,0.4-0.1,0.4-0.3v-2.5h-5.7v5.5h6.6l0.3-0.1l0.9,0.3
		c-0.5,2.7-1.5,5-2.8,6.8c1,1.1,2.1,2.1,3.4,2.7c-0.3,0.3-0.7,0.8-1,1.2c-1.2-0.7-2.3-1.6-3.3-2.7c-0.9,1.1-2,1.9-3.1,2.6
		c-0.2-0.3-0.6-0.8-0.9-1.1c1.1-0.6,2.2-1.5,3.1-2.6c-1.2-1.6-2-3.6-2.7-5.7h-0.5v9.5h-1.4v-17.8H266.7z M261.3,175.5
		c0.5,1.7,1.3,3.2,2.2,4.5c0.9-1.3,1.6-2.9,2-4.5H261.3z"/>
	<path d="M277.8,166.7c-0.4,0.6-0.8,1.2-1.3,1.8h8.2l0.3-0.1l0.9,0.6c-1.2,1.8-3.1,3.3-5.4,4.3c2.1,0.6,4.6,1,7.4,1.2
		c-0.3,0.3-0.7,1-0.8,1.4c-3.1-0.3-6-0.8-8.3-1.8c-2.7,1-5.8,1.7-8.7,2c-0.1-0.4-0.4-1-0.6-1.3c2.6-0.2,5.2-0.7,7.6-1.5
		c-1.2-0.6-2.2-1.5-3-2.4c-0.8,0.7-1.8,1.3-2.8,1.9c-0.2-0.3-0.6-0.9-1-1.1c2.9-1.5,4.9-3.5,5.9-5.3L277.8,166.7z M279,175.8
		c-0.1,0.7-0.2,1.3-0.4,1.9h7.4c0,0,0,0.5-0.1,0.7c-0.4,3.7-0.9,5.2-1.6,5.8c-0.4,0.4-0.9,0.5-1.6,0.6c-0.6,0-1.8,0-3-0.1
		c0-0.4-0.2-1-0.5-1.4c1.3,0.1,2.6,0.1,3.1,0.1c0.4,0,0.7,0,0.9-0.2c0.5-0.4,0.9-1.6,1.2-4.3h-6.1c-1.3,3.3-3.8,5-7.8,5.9
		c-0.1-0.3-0.6-1-0.8-1.3c3.6-0.7,5.8-2,7-4.7H271v-1.3h6.1c0.2-0.6,0.3-1.3,0.4-2L279,175.8z M275.3,169.8l-0.3,0.3
		c0.9,1.1,2.1,2,3.7,2.7c1.9-0.8,3.6-1.7,4.8-3H275.3z"/>
	<path d="M292.7,178.9v-8.7h-3v-1.5h7.4v1.5h-3v8.2l3.3-0.9l0.2,1.4c-2.8,0.8-5.7,1.6-7.8,2.2l-0.4-1.6
		C290.3,179.5,291.5,179.2,292.7,178.9z M302.3,166.7c0,1.5,0,2.9-0.1,4.3h5.5c0,0,0,0.5,0,0.7c-0.3,8.4-0.6,11.3-1.4,12.2
		c-0.4,0.6-0.9,0.7-1.6,0.8c-0.6,0.1-1.8,0-3,0c0-0.4-0.2-1.1-0.5-1.5c1.3,0.1,2.4,0.1,2.8,0.1c0.4,0,0.6-0.1,0.8-0.3
		c0.6-0.6,0.9-3.4,1.2-10.6h-4c-0.3,5.4-1.5,9.9-6.1,12.5c-0.2-0.4-0.7-0.9-1.1-1.2c4.3-2.3,5.4-6.4,5.7-11.3h-3.3V171h3.4
		c0-1.4,0.1-2.8,0.1-4.3H302.3z"/>
	<path d="M310.1,170.8c0.3-0.1,0.6-0.4,1-0.8s1.5-2,2.1-3.6l1.6,0.5c-0.7,1.4-1.6,2.7-2.5,3.8l4.4-0.2c-0.4-0.8-1-1.6-1.5-2.3
		l1.2-0.5c1.1,1.4,2.2,3.2,2.6,4.4l-1.3,0.6c-0.1-0.3-0.3-0.7-0.5-1.1c-5.5,0.4-6.2,0.5-6.7,0.7
		C310.5,171.9,310.2,171.2,310.1,170.8z M318.1,173.6v9.6c0,0.8-0.2,1.2-0.7,1.5c-0.6,0.2-1.4,0.2-2.7,0.2c-0.1-0.4-0.3-1-0.5-1.4
		c1,0,1.8,0,2.1,0c0.3,0,0.3-0.1,0.3-0.3v-2.4h-4.3v4.1h-1.4v-11.4H318.1z M312.3,174.9v1.7h4.3v-1.7H312.3z M312.3,179.7h4.3v-1.8
		h-4.3V179.7z M327.2,169.1c-1.6,0.7-3.8,1.5-5.7,2v2.1c0,0.6,0.2,0.8,1.1,0.8c0.4,0,2.6,0,3.2,0c0.8,0,0.9-0.3,1-2.3
		c0.3,0.3,0.9,0.5,1.3,0.6c-0.2,2.5-0.6,3.1-2.2,3.1c-0.4,0-3.1,0-3.5,0c-1.9,0-2.4-0.5-2.4-2.1v-6.7h1.5v3.4
		c1.7-0.6,3.6-1.3,4.7-1.9L327.2,169.1z M327.5,178.1c-1.6,0.9-3.9,1.7-5.9,2.3v2.4c0,0.6,0.2,0.8,1.1,0.8c0.4,0,2.7,0,3.3,0
		c0.8,0,1-0.4,1.1-2.7c0.3,0.2,1,0.5,1.4,0.6c-0.2,2.7-0.6,3.4-2.3,3.4c-0.4,0-3.1,0-3.5,0c-2,0-2.5-0.4-2.5-2.1v-6.8h1.5v3.2
		c1.8-0.6,3.8-1.4,5-2.1L327.5,178.1z"/>
	<path d="M347.4,173.7c-0.7,2.5-1.7,4.9-3.1,7c0.6,1.7,1.3,2.7,2.2,2.7c0.5,0,0.7-0.9,0.8-3.3c0.3,0.3,0.8,0.6,1.2,0.8
		c-0.2,3-0.7,4-2.2,4c-1.3,0-2.3-1-3.1-2.8c-0.9,1.1-1.8,2.1-2.9,3c-0.3-0.3-0.7-0.8-1.1-1c1.3-0.9,2.4-2.1,3.4-3.6
		c-0.6-2.2-1-5-1.2-8.2h-11.4V171h4.9v-1.7h-3.9V168h3.9v-1.6h1.5v1.6h3.6v1.2h-3.6v1.7h5c-0.1-1.5-0.1-3-0.1-4.5h1.5
		c0,1.6,0,3.1,0.1,4.5h5.4v1.2H343c0.2,2.5,0.4,4.7,0.8,6.5c1-1.7,1.7-3.5,2.2-5.5L347.4,173.7z M335.8,181.1v-2h-2.6
		c-0.8,0-1.5,0.1-1.6,0.3c-0.1-0.3-0.3-1-0.5-1.4c0.3-0.1,0.6-0.5,0.9-1c0.2-0.2,0.4-0.8,0.8-1.5h-2.3v-1.3h2.9
		c0.3-0.6,0.5-1.3,0.7-2l1.5,0.4c-0.2,0.5-0.4,1.1-0.7,1.6h6v1.3h-6.6c-0.4,0.8-0.8,1.6-1.3,2.3h2.8v-1.6h1.4v1.6h3.2v1.3h-3.2v1.9
		l3.7-0.3v1.3l-3.7,0.4v2.7h-1.4v-2.5l-5.3,0.5l-0.2-1.4L335.8,181.1z M345.1,166.8c0.9,0.7,2,1.8,2.5,2.5l-1.2,0.8
		c-0.5-0.7-1.5-1.9-2.5-2.6L345.1,166.8z"/>
	<path d="M355.8,166.9c-0.5,1.4-1.1,2.9-1.8,4.3V185h-1.5v-11.3c-0.5,0.9-1.1,1.7-1.7,2.3c-0.1-0.3-0.6-1.2-0.9-1.5
		c1.8-2,3.5-5,4.5-8.1L355.8,166.9z M361.1,179.9v-6.9c-1.3,3.6-3.3,6.9-5.4,8.8c-0.2-0.4-0.7-0.9-1.1-1.2c2.2-1.8,4.3-5.2,5.6-8.7
		h-4.8v-1.5h5.7v-4h1.5v4h6.1v1.5h-5.1c1.2,3.4,3.3,6.8,5.5,8.6c-0.4,0.3-0.9,0.8-1.2,1.2c-2.1-1.9-4-5.3-5.3-8.8v7h3.3v1.4h-3.3
		v3.6h-1.5v-3.6h-3.3v-1.4H361.1z"/>
	<path d="M378.8,176.4v-7.1h-7.2v-1.5h15.9v1.5h-7.2v7.1h8.3v1.5h-8.3v7.1h-1.6v-7.1h-8.2v-1.5H378.8z M374.4,170.2
		c0.8,1.5,1.6,3.4,1.9,4.6l-1.4,0.5c-0.3-1.2-1.1-3.2-1.9-4.7L374.4,170.2z M386.4,170.6c-0.7,1.6-1.7,3.6-2.5,4.8l-1.3-0.4
		c0.8-1.3,1.7-3.3,2.2-4.8L386.4,170.6z"/>
	<path d="M391.8,173.3c0.5-0.1,1-0.5,1.7-1.2c0.7-0.7,3.1-3.3,4.7-5.8l1.5,0.7c-1.6,2.2-3.4,4.3-5.2,6l10.4-0.5c-0.9-1-2-2.1-3-3
		l1.2-0.8c2,1.7,4.3,4.2,5.4,5.9l-1.3,0.9c-0.3-0.5-0.7-1.1-1.2-1.7c-11.6,0.6-12.8,0.7-13.6,1C392.2,174.5,392,173.7,391.8,173.3z
		 M406.4,176.5v8.5h-1.6v-1.1h-9.8v1.1h-1.5v-8.5H406.4z M404.7,182.4v-4.5h-9.8v4.5H404.7z"/>
</g>
<path class="st1" d="M416.7,0h104.8c15.4,0,27.9,12.5,27.9,27.9v5.5c0,15.4-12.5,27.9-27.9,27.9H416.7c-15.4,0-27.9-12.5-27.9-27.9
	v-5.5C388.7,12.5,401.2,0,416.7,0z"/>
<g class="st0">
	<path class="st2" d="M431.2,30l3.4,1.4v16.3l-27.9,1.5V11.3l27.9,1.5v15.7L431.2,30z M415.5,26.2h10.9v-7l-10.9-0.3V26.2z
		 M415.5,41.1l10.9-0.1v-7.2h-10.9V41.1z"/>
	<path class="st2" d="M448.8,19l0.1,7.4h15.5v7.1H449l0.1,7.7l17.9-0.4v7.7h-27.1V11.7h26.1v7.7L448.8,19z"/>
	<path class="st2" d="M497.7,11.7v7.4h-10.1l0.4,29.4h-9.9l0.4-29.4H469v-7.4H497.7z"/>
	<path class="st2" d="M523.1,48.6l-2.2-7.2h-11.1l-2,7.2h-8.5l11.5-36.8h9.5l13.2,36.8H523.1z M518.7,34.3l-3.6-11.5l-3.3,11.5
		H518.7z"/>
</g>
<path class="st3" d="M73.1,65.2l-6.4,9.6c-0.7,1-0.5,2.4,0.4,3.2c13.2,12.3,31.4,17.8,49.2,14.9c0.5-5.1,1.1-10.3,1.5-15.4
	C101.7,81.1,85,76.6,73.1,65.2z"/>
<path class="st4" d="M147,74.8l-6.4-9.6c-1.1,1.1-2.3,2.1-3.5,3c-5.7,4.5-12.3,7.6-19.4,9.2c-0.4,5.1-0.9,10.3-1.5,15.4
	c11.4-1.8,21.9-7,30.3-14.9l0,0C147.5,77.2,147.6,75.8,147,74.8z"/>
<path class="st5" d="M97.6,87.5l-1.4,5.2c2.1,0.4,4.1,0.6,6.2,0.8l-1-4.9L97.6,87.5z"/>
<path class="st6" d="M146.6,78c-1.3,1.2-2.6,2.3-4,3.4c0.5-0.8,0.5-1.9-0.1-2.7L136,69c0.3-0.2,0.6-0.5,1-0.8c1.2-0.9,2.4-1.9,3.5-3
	l6.4,9.6C147.6,75.8,147.5,77.2,146.6,78L146.6,78z"/>
<path class="st7" d="M143.8,80.5c-1.5,1.3-3.1,2.4-4.7,3.5l-1.8-5.3c0,0-5-5.6-4.9-5.7l3.7-4L143.8,80.5z"/>
<path class="st5" d="M84.1,72.9l-8.5,11.6c-1.4-0.9-2.8-1.9-4.2-2.9l6.8-13.2L84.1,72.9z"/>
<path class="st7" d="M132.3,87.8c-1.6,0.8-3.3,1.5-5,2.1l-5.8-13.8l5.8-3.3L132.3,87.8z"/>
<path class="st5" d="M115.5,77.5l-10.4,2.1l0.7,7.8l4.8,1.5l2,4.4c1.2-0.1,2.4-0.3,3.6-0.5c0.3-3.3,0.7-6.6,1-9.8L115.5,77.5z"/>
<path class="st7" d="M117.2,83.1c-0.3,3.3-0.6,6.6-1,9.8c1.3-0.2,2.5-0.5,3.8-0.7L117.2,83.1z"/>
<path class="st5" d="M96.6,77.7l-6,13.7c-3-0.9-5.9-2-8.7-3.3l11.4-11.4L96.6,77.7z"/>
<path class="st8" d="M141.4,66.6l-4-5.9c-1.1,1-2.2,2-3.4,2.9c-4.7,3.6-10.1,6.3-15.9,7.8c-0.1,2.8-0.4,5.6-0.6,8.3
	c7.1-1.6,13.8-4.7,19.5-9.3C138.6,69.3,140,68,141.4,66.6z"/>
<path class="st9" d="M76.2,60.7l-4,5.9c11.9,11.9,29,16.8,45.3,13.1c0.2-2.8,0.4-5.6,0.6-8.3C103.2,75.3,87.4,71.2,76.2,60.7z"/>
<path class="st10" d="M141.4,66.6l-32.5-48.5c-0.8-1.1-2.3-1.5-3.5-0.7c-0.3,0.2-0.5,0.4-0.7,0.7v0.1c4.1,6,8.1,12,10.3,19.1
	l0.1,0.5l21.9,32.7C138.6,69.3,140.1,68,141.4,66.6z"/>
<path class="st10" d="M104.7,18.1l-1.8,2.8c0.7,0.1,1.3,0.5,1.6,1.1l10.6,15.8l-0.1-0.5C112.9,30.1,108.9,24.1,104.7,18.1z"/>
<path class="st11" d="M115,37.2c-2.1-7.1-6.1-13.2-10.3-19.1l-1.8,2.8L75.2,62.1c11.2,11.2,27.4,15.6,42.8,11.7
	C118.8,61.6,118.5,49.3,115,37.2z"/>
<path class="st12" d="M138.4,62.1l-29.5-44c-0.8-1.1-2.3-1.5-3.5-0.7c-0.3,0.2-0.5,0.4-0.7,0.7v0.1c4.1,6,8.1,12,10.3,19.1
	c3.5,12.1,3.8,24.3,3,36.5C125.8,71.8,132.8,67.8,138.4,62.1L138.4,62.1z"/>
<path class="st13" d="M104.7,18.1l-1.8,2.8c0.7,0.1,1.3,0.5,1.6,1.1l10.6,15.8l-0.1-0.5C112.9,30.1,108.9,24.1,104.7,18.1z"/>
<path class="st14" d="M138.4,62.1l-29.5-44c-0.8-1.1-2.3-1.5-3.5-0.7c-0.3,0.2-0.5,0.4-0.7,0.7v0.1c4.1,6,8.1,12,10.3,19.1l0.1,0.5
	L134.1,66C135.6,64.8,137.1,63.5,138.4,62.1z"/>
<path class="st15" d="M100.2,47.9c0,0.8-0.3,1.5-0.8,2.1c-0.6,0.7-1.6,0.7-2.3,0.1c-0.1,0-0.1-0.1-0.1-0.1c-1.1-1.2-1.1-3,0-4.2
	c0.6-0.7,1.6-0.7,2.3-0.1c0.1,0,0.1,0.1,0.1,0.1C99.9,46.4,100.2,47.2,100.2,47.9z"/>
<path class="st15" d="M116.8,45.9c-0.6-0.7-1.6-0.7-2.3-0.1c-0.1,0-0.1,0.1-0.1,0.1c-1.1,1.2-1.1,3,0,4.2c0.6,0.7,1.6,0.7,2.3,0.1
	c0.1,0,0.1-0.1,0.1-0.1c0.3-0.3,0.5-0.8,0.7-1.2c-0.1-0.9-0.3-1.8-0.4-2.6C116.9,46.1,116.9,46,116.8,45.9z"/>
<path class="st16" d="M117,46.2c0.1,0.9,0.3,1.8,0.4,2.6C117.7,48,117.6,47,117,46.2z"/>
<path class="st15" d="M105.6,34.3c-1.1,1.2-1.1,3,0,4.2c0.6,0.7,1.6,0.7,2.3,0.1c0.1,0,0.1-0.1,0.1-0.1c1.1-1.2,1.1-3,0-4.2
	c-0.6-0.7-1.6-0.7-2.3-0.1C105.7,34.2,105.7,34.3,105.6,34.3z"/>
<path class="st15" d="M91.5,59.5c0,0.8-0.3,1.5-0.8,2.1c-0.6,0.7-1.6,0.7-2.3,0.1c-0.1,0-0.1-0.1-0.1-0.1c-1.1-1.2-1.1-3,0-4.2
	c0.6-0.7,1.6-0.7,2.3-0.1c0.1,0,0.1,0.1,0.1,0.1C91.2,58,91.4,58.8,91.5,59.5z"/>
<path class="st15" d="M105.6,57.4c-1.1,1.2-1.1,3,0,4.2c0.6,0.7,1.6,0.7,2.3,0.1c0.1,0,0.1-0.1,0.1-0.1c1.1-1.2,1.1-3,0-4.2
	c-0.6-0.7-1.6-0.7-2.3-0.1C105.7,57.3,105.7,57.4,105.6,57.4z"/>
<path class="st16" d="M126.3,59.5c0,0.8-0.3,1.5-0.8,2.1c-0.6,0.7-1.6,0.7-2.3,0.1c-0.1,0-0.1-0.1-0.1-0.1c-1.1-1.2-1.1-3,0-4.2
	c0.6-0.7,1.6-0.7,2.3-0.1c0.1,0,0.1,0.1,0.1,0.1C126,58,126.3,58.8,126.3,59.5z"/>
<path class="st2" d="M66.8,142.6c0.8,0,1.5-0.6,1.6-1.4c2.2-17,4.6-19.5,21.4-21.4c0.9,0,1.6-0.7,1.6-1.6s-0.7-1.6-1.6-1.6
	c-16.8-1.9-19.2-4.4-21.4-21.4c-0.1-0.8-0.8-1.4-1.6-1.4c-0.8,0-1.5,0.6-1.5,1.4c-2.2,17-4.6,19.5-21.4,21.4c-0.9,0-1.6,0.7-1.6,1.6
	s0.7,1.6,1.6,1.6c16.7,2.2,19,4.5,21.4,21.4C65.4,142,66,142.6,66.8,142.6L66.8,142.6z"/>
<path class="st2" d="M66.8,83.4C65.4,77,64.4,70.5,63.7,64c-0.2-2.7-0.3-2.5-0.6-6c-0.1-1.2-0.1-2.3,0.1-3.5
	c0.1-0.8,0.5-1.5,1.1-2.1c0.6-0.6,1.3-0.9,2.1-0.9h0.8c0.8,0,1.5,0.3,2.1,0.9c0.6,0.6,1,1.3,1.1,2.1c0.2,1.2,0.2,2.3,0.1,3.5
	c-0.2,3.5-0.4,3.3-0.6,6C69.2,70.5,68.1,77,66.8,83.4"/>
<path class="st2" d="M54.9,106.4c-11.3-8.7-19.7-15.7-23.7-19.3c-3.1-2.8-3.1-2.6-7.1-6.2c-1.4-1.2-2.6-2.5-3.8-3.9
	c-0.8-0.9-1.3-2-1.5-3.1c-0.3-0.9-0.1-1.8,0.5-2.4l0.5-0.5c0.7-0.6,1.6-0.8,2.5-0.5c1.1,0.3,2.2,0.8,3.1,1.5
	c1.4,1.2,2.7,2.4,3.9,3.8c3.7,4,3.4,4,6.3,7.1C39.2,86.7,46.2,95.1,54.9,106.4"/>
<path class="st2" d="M54.9,130.2c-8.7,11.3-15.7,19.7-19.3,23.7c-2.8,3.1-2.6,3.1-6.3,7.1c-1.2,1.4-2.5,2.7-3.9,3.8
	c-0.9,0.7-2,1.3-3.1,1.5c-0.9,0.3-1.8,0.1-2.5-0.5l-0.5-0.5c-0.6-0.7-0.8-1.6-0.5-2.4c0.3-1.1,0.8-2.2,1.5-3.1
	c1.2-1.4,2.4-2.7,3.8-3.9c4-3.7,4-3.4,7.1-6.2C35.2,145.9,43.6,138.9,54.9,130.2"/>
<path class="st2" d="M78.7,130.2c11.3,8.7,19.7,15.8,23.7,19.3c3.1,2.8,3.1,2.6,7.1,6.2c1.4,1.2,2.7,2.5,3.8,3.9
	c0.8,0.9,1.3,2,1.6,3.1c0.3,0.9,0.1,1.8-0.5,2.4l-0.5,0.5c-0.7,0.6-1.6,0.8-2.4,0.5c-1.1-0.3-2.2-0.8-3.1-1.6
	c-1.4-1.2-2.7-2.4-3.9-3.8c-3.7-4-3.4-4-6.2-7.1C94.4,149.9,87.4,141.5,78.7,130.2"/>
<path class="st2" d="M78.7,106.4C87.4,95.1,94.4,86.6,98,82.7c2.8-3.1,2.6-3.1,6.3-7.1c1.2-1.4,2.5-2.7,3.9-3.8
	c0.9-0.8,2-1.3,3.1-1.5c0.9-0.3,1.8-0.1,2.4,0.5l0.5,0.5c0.6,0.7,0.8,1.6,0.5,2.4c-0.3,1.1-0.8,2.2-1.6,3.1
	c-1.2,1.4-2.4,2.7-3.8,3.9c-4,3.7-4,3.4-7.1,6.2C98.4,90.6,90,97.7,78.7,106.4"/>
<path class="st2" d="M31.9,118.3c-6.4,1.4-12.9,2.4-19.4,3.1c-2.7,0.2-2.5,0.3-6,0.6c-1.2,0.1-2.3,0.1-3.5-0.1
	c-0.8-0.1-1.5-0.5-2.1-1.1c-0.6-0.6-0.9-1.3-0.9-2.1v-0.8c0-0.8,0.3-1.6,0.9-2.1c0.6-0.6,1.3-1,2.1-1.1c1.2-0.2,2.3-0.2,3.5-0.1
	c3.5,0.2,3.4,0.4,6,0.6C19,115.9,25.5,116.9,31.9,118.3"/>
<path class="st2" d="M66.8,153.2c1.4,6.4,2.4,12.9,3.1,19.4c0.2,2.7,0.3,2.5,0.6,6c0.1,1.2,0.1,2.3-0.1,3.5
	c-0.1,0.8-0.5,1.5-1.1,2.1c-0.6,0.6-1.3,0.9-2.1,0.9h-0.8c-0.8,0-1.5-0.3-2.1-0.9c-0.6-0.6-1-1.3-1.1-2.1c-0.2-1.2-0.2-2.3-0.1-3.5
	c0.2-3.5,0.4-3.4,0.6-6C64.4,166.1,65.4,159.6,66.8,153.2"/>
<path class="st2" d="M101.7,118.3c6.4-1.4,12.9-2.4,19.4-3.1c2.7-0.2,2.6-0.3,6-0.6c1.2-0.1,2.3-0.1,3.5,0.1
	c0.8,0.1,1.5,0.5,2.1,1.1c0.6,0.6,0.9,1.3,0.9,2.1v0.8c0,0.8-0.3,1.5-0.9,2.1c-0.6,0.6-1.3,1-2.1,1.1c-1.2,0.2-2.3,0.2-3.5,0.1
	c-3.5-0.2-3.4-0.4-6-0.6C114.6,120.7,108.1,119.7,101.7,118.3"/>
</svg>
