<?xml version="1.0" encoding="UTF-8"?><svg id="a" xmlns="http://www.w3.org/2000/svg" viewBox="0 0 389.86 132.05"><defs><style>.b{fill:#00a0ff;}</style></defs><path class="b" d="M105.68,13.27h0c-2.47-1.86-5.03-3.52-7.66-4.98-1.9-1.06-4.3-.56-5.6,1.18l-16.49,21.91-1.18,1.56c-1.79,2.37-4.64,3.67-7.6,3.53-1.08-.05-2.16-.04-3.24,.03-8.29,.52-16.31,4.52-21.69,11.68-4.33,5.75-6.23,12.58-5.88,19.24,.06,1.2,.76,2.3,1.85,2.8,2.27,1.03,4.02,3.14,4.45,5.83,.62,3.81-1.72,7.55-5.42,8.66-4.36,1.31-8.83-1.36-9.81-5.72-.53-2.36,.08-4.71,1.46-6.48,.77-.98,1.15-2.2,1.04-3.44-.76-8.55,1.52-17.4,7.09-24.8,7.03-9.33,17.72-14.27,28.56-14.34,2.09-.01,4.05-1.01,5.31-2.68l15.19-20.18c1.19-1.58,.42-3.85-1.48-4.4C59.15-4.8,30.67,3.59,13.62,25.81-8.48,54.59-3.11,96.08,25.6,118.27c2.69,2.08,5.48,3.91,8.36,5.51,1.89,1.05,4.27,.54,5.58-1.19l16.49-21.91,1.18-1.56c1.79-2.37,4.64-3.67,7.6-3.53,1.08,.05,2.16,.04,3.24-.03,8.29-.52,16.31-4.52,21.69-11.68,4.33-5.75,6.23-12.58,5.88-19.24-.06-1.2-.76-2.3-1.85-2.8-2.27-1.03-4.02-3.14-4.45-5.83-.62-3.81,1.72-7.55,5.42-8.66,4.36-1.31,8.83,1.36,9.81,5.72,.53,2.36-.08,4.71-1.46,6.48-.77,.98-1.15,2.2-1.04,3.44,.76,8.55-1.52,17.4-7.09,24.8-7.03,9.33-17.72,14.27-28.56,14.34-2.09,.01-4.05,1.01-5.31,2.68l-15.19,20.18c-1.18,1.57-.44,3.84,1.44,4.4,25.63,7.53,54.37-1.05,71.38-23.65,21.93-29.13,16.09-70.53-13.05-92.46Z"/><g><path class="b" d="M214.65,31.31v-1.57c0-1.13-.92-2.05-2.05-2.05h-51.42c-1.13,0-2.05,.92-2.05,2.05v3.14c0,1.13,.92,2.05,2.05,2.05h43.63c1.26,0,2.22,1.11,2.03,2.35-1.22,8.11-5.06,23.29-17.05,37.85-.85,1.03-2.42,1.01-3.24-.04-10.03-12.83-13.12-25.98-13.96-30.83-.18-1.06-1.17-1.79-2.24-1.68l-1.64,.17-1.45,.15c-1.19,.12-2.03,1.23-1.81,2.4,1.03,5.56,4.77,20.84,16.55,35.39,.68,.84,.62,2.08-.17,2.81-14.34,13.15-27.23,16.03-31.84,16.66-1.03,.14-1.79,1.01-1.79,2.05l.02,3.17c0,1.22,1.07,2.17,2.28,2.03,5.48-.64,20.12-3.74,36.28-18.61,.8-.73,2.01-.73,2.81,0,7.81,7.23,17.8,14.21,31.27,18.49,1.09,.35,2.26-.29,2.58-1.39l.89-3.01c.32-1.08-.3-2.2-1.37-2.54-12.25-3.91-21.29-10.2-28.38-16.65-.82-.74-.86-2.01-.14-2.85,19.98-23.4,20.23-48.43,20.23-49.57Z"/><path class="b" d="M250.35,24.4h-3.14c-1.13,0-2.05,.92-2.05,2.05v11c0,1.13-.92,2.05-2.05,2.05h-7.38c-1.13,0-2.05,.92-2.05,2.05v3.14c0,1.13,.92,2.05,2.05,2.05h7.38c1.13,0,2.05,.92,2.05,2.05v15.93c0,1.13-.92,2.05-2.05,2.05h-7.38c-1.13,0-2.05,.92-2.05,2.05v3.14c0,1.13,.92,2.05,2.05,2.05h7.38c1.13,0,2.05,.92,2.05,2.05v15.07c0,3.27-1.31,8.61-9.65,9.31-1.08,.09-1.92,.96-1.92,2.05v3.12c0,1.2,1.02,2.16,2.21,2.05,8.1-.69,16.6-5.29,16.6-16.54v-15.07c0-1.13,.92-2.05,2.05-2.05h6.56c1.13,0,2.05-.92,2.05-2.05v-3.14c0-1.13-.92-2.05-2.05-2.05h-6.56c-1.13,0-2.05-.92-2.05-2.05v-15.93c0-1.13,.92-2.05,2.05-2.05h6.56c1.13,0,2.05-.92,2.05-2.05v-3.14c0-1.13-.92-2.05-2.05-2.05h-6.56c-1.13,0-2.05-.92-2.05-2.05v-11c0-1.13-.92-2.05-2.05-2.05Z"/><path class="b" d="M266.69,105.14c0,1.13,.92,2.05,2.05,2.05h23.14c10.24,0,18.57-7.94,18.57-17.7V40.86c0-1.13-.92-2.05-2.05-2.05h-39.65c-1.13,0-2.05,.92-2.05,2.05V105.14Zm25.19-5.19h-15.89c-1.13,0-2.05-.92-2.05-2.05v-21.81c0-1.13,.92-2.05,2.05-2.05h25.17c1.13,0,2.05,.92,2.05,2.05v13.41c0,5.77-5.08,10.46-11.33,10.46Zm11.33-51.84v16.63c0,1.13-.92,2.05-2.05,2.05h-25.17c-1.13,0-2.05-.92-2.05-2.05v-16.63c0-1.13,.92-2.05,2.05-2.05h25.17c1.13,0,2.05,.92,2.05,2.05Z"/><path class="b" d="M298.21,24.35h-20.44c-1.13,0-2.05,.92-2.05,2.05v3.14c0,1.13,.92,2.05,2.05,2.05h20.44c1.13,0,2.05-.92,2.05-2.05v-3.14c0-1.13-.92-2.05-2.05-2.05Z"/><path class="b" d="M376.34,27.54h-42.57c-1.13,0-2.05,.92-2.05,2.05v3.14c0,1.13,.92,2.05,2.05,2.05h42.57c1.13,0,2.05-.92,2.05-2.05v-3.14c0-1.13-.92-2.05-2.05-2.05Z"/><path class="b" d="M358.15,63.85h29.66c1.13,0,2.05-.92,2.05-2.05v-3.14c0-1.13-.92-2.05-2.05-2.05h-65.51c-1.13,0-2.05,.92-2.05,2.05v3.14c0,1.13,.92,2.05,2.05,2.05h20.27c1.64,0,2.62,1.82,1.71,3.19l-13.49,24.34c-.36,.55-.63,1.08-.82,1.63-1.13,3.3-.6,6.84,1.45,9.71,2.15,3.01,5.71,4.81,9.51,4.81h36.98c1.66,0,3.18-.83,4.06-2.22,.86-1.36,.97-3.04,.28-4.49l-8.59-16.64c-.52-1.01-1.76-1.4-2.77-.88l-2.79,1.44c-1.01,.52-1.4,1.76-.88,2.77l5.05,9.8c.71,1.37-.29,2.99-1.83,2.99h-29.53c-1.49,0-2.81-.65-3.62-1.77-.37-.51-.9-1.53-.59-2.8,.05-.21,.16-.41,.28-.6l16.4-28.72c1.06-1.59,2.84-2.55,4.75-2.55Z"/></g></svg>