<?xml version="1.0" standalone="no"?><!DOCTYPE svg PUBLIC "-//W3C//DTD SVG 1.1//EN" "http://www.w3.org/Graphics/SVG/1.1/DTD/svg11.dtd"><svg t="1706342256406" class="icon" viewBox="0 0 1121 1024" version="1.1" xmlns="http://www.w3.org/2000/svg" p-id="7058" xmlns:xlink="http://www.w3.org/1999/xlink" width="218.9453125" height="200"><path d="M1108.018 152.234l-89.727-4.891S984.355 25.854 828.605 14.954C672.856 4.057 570.948 10.9 570.948 10.9S686.48 85.946 640.18 219.861c-34.402 72.227-88.828 131.24-146.858 199.064L109.605 865.76c357.196-5.344 567.785-8.017 631.769-8.017 179.434 0 331.078-158.777 324.873-335.438-4.267-121.413-42.15-148.845-55.172-202.02-13.017-53.175 13.043-137.974 96.943-168.051z" fill="#31CC79" p-id="7059"></path><path d="M491.755 420.368C303.941 636.798 8.778 981.151 8.778 981.151c531.003 142.209 775.657-202.93 813.967-322.416 51.362-160.198-21.21-238.369-62.283-263.862-139.263-86.438-242.59-4.604-268.707 25.493z" fill="#93E65C" p-id="7060"></path><path d="M494.363 415.374c29.793-32.15 131.078-106.93 266.178-22.742 41.078 25.594 113.654 104.08 62.288 264.932-14.88 46.605-60.903 127.395-142.753 200.407-84.874 0.583-275.366 3.09-571.485 7.532l366.021-427.186a8405.734 8405.734 0 0 1 18.935-22.062z" fill="#60DB69" p-id="7061"></path></svg>